<?xml version="1.0" encoding="utf-8"?>
<!-- Generator: Adobe Illustrator 19.2.1, SVG Export Plug-In . SVG Version: 6.00 Build 0)  -->
<svg version="1.1" id="_x30_6ec9f92-de6a-453f-93ad-4994402b88e9"
	 xmlns="http://www.w3.org/2000/svg" xmlns:xlink="http://www.w3.org/1999/xlink" x="0px" y="0px" viewBox="0 0 87.1 100.1"
	 style="enable-background:new 0 0 87.1 100.1;" xml:space="preserve">
<style type="text/css">
	.st0{fill:#3A86FF;}
</style>
<title>3D</title>
<path class="st0" d="M33.5,45.4L33.5,45.4h0.1h0.1l0.2,0.1l0,0l0,0h0.1l0.2,0.1l0,0h0.1l0,0l0.1,0.1l0,0l0,0h0.1h0.1l0,0l0.1,0.1h0
	l0,0l0.4,0.5h0.1l0,0l0.1,0.1l0,0l0,0h0l0.2,0.1l0,0l0.1,0.1h0.1l0,0l0.2,0.1H36l0,0l0.1,0.1h0.1h0l0.1,0l0,0l0.2,0.2h0.1h0.1
	l0.2,0.1h0l0,0l0.1,0.2l0,0l0,0h0.1l0.1,0l0,0h0.1l0,0l0,0h0.1l0.2,0.1h0h0.1l0.1,0l0,0h0.1l0.1,0.1l0,0H38l0,0l0,0h0.1l0.4,0.5h0
	h0.1l0.1,0.1l0,0h0.1h0.1l0,0l0.2,0.2l0,0h0.1h0.1l0,0l0.1,0.1l0,0h0l0.1,0h0.1l0,0l0.1,0l0,0h0.1l0,0h0.1l0,0l0.1,0.1l0,0l0.1,0h0
	h0l0.4,0.4l0,0v0.1c0,0,0,0.1,0,0.1s0,0.1,0,0.1v0.1c0,0,0,0,0,0.1s0,0,0,0.1v0.2c0,0,0,0,0,0.1s0,0,0,0.1V50c0,0,0,0.1,0,0.1
	s0,0.1,0,0.1v0.5c0,0,0,0,0,0.1V51c0,0,0,0.1,0,0.1s0,0.1,0,0.1v0.1c0,0,0,0,0,0.1s0,0,0,0.1v0.3c0,0,0,0,0,0.1V52c0,0,0,0.1,0,0.1
	s0,0.1,0,0.1v0.5c0,0,0,0,0,0.1v0.1c0,0,0,0.1,0,0.1s0,0.1,0,0.1v0.1c0,0,0,0,0,0.1s0,0,0,0.1v0.2c0,0,0,0,0,0.1s0,0,0,0.1v0.1
	c0,0,0,0.1,0,0.1s0,0.1,0,0.1v0.1c0,0,0,0,0,0.1v0.5c0,0,0,0.1,0,0.1s0,0.1,0,0.1v0.2c0,0,0,0,0,0.1v0.2c0,0,0,0,0,0.1s0,0,0,0.1
	v0.1c0,0,0,0.1,0,0.1s0,0.1,0,0.1v0.2c0,0,0,0,0,0.1s0,0,0,0.1v0.2c0,0,0,0,0,0.1s0,0,0,0.1v0.1c0,1.7,1.4,3,3,3c1.7,0,3-1.4,3-3
	v-0.1c0,0,0,0,0-0.1s0,0,0-0.1v-0.2c0,0,0,0,0-0.1s0,0,0-0.1v-0.1c0,0,0-0.1,0-0.1s0-0.1,0-0.1v-0.1c0,0,0,0,0-0.1s0,0,0-0.1v-0.3
	c0,0,0,0,0-0.1s0,0,0-0.1v-0.1c0,0,0-0.1,0-0.1s0-0.1,0-0.1v-0.1c0,0,0,0,0-0.1s0,0,0-0.1v-0.2c0,0,0,0,0-0.1s0,0,0-0.1v-0.1
	c0,0,0-0.1,0-0.1s0-0.1,0-0.1v-0.1c0,0,0,0,0-0.1s0,0,0-0.1v-0.2c0,0,0,0,0-0.1s0,0,0-0.1v-0.1c0,0,0-0.1,0-0.1s0-0.1,0-0.1v-0.1
	c0,0,0,0,0-0.1s0,0,0-0.1v-0.2c0,0,0,0,0-0.1s0,0,0-0.1v-0.1c0,0,0-0.1,0-0.1s0-0.1,0-0.1v-0.1c0,0,0,0,0-0.1s0,0,0-0.1v-0.2
	c0,0,0,0,0-0.1s0,0,0-0.1v-0.1c0,0,0-0.1,0-0.1s0-0.1,0-0.1v-0.1c0,0,0,0,0-0.1s0,0,0-0.1v-0.2c0,0,0,0,0-0.1s0,0,0-0.1v-0.2
	c0,0,0-0.1,0-0.1s0-0.1,0-0.1v-0.1c0,0,0,0,0-0.1s0,0,0-0.1v-0.2c0,0,0,0,0-0.1s0,0,0-0.1v-0.1l-0.1-0.1c0,0,0-0.1,0-0.1v-0.2
	c0,0,0,0,0-0.1l0,0h0.1l0.1-0.1h0h0l0.2-0.1h0.1l0,0l0.1-0.1l0.1-0.1l0.2-0.2l0.1-0.1h0h0.1l0.2-0.1l0,0H48l0.1-0.1l0.1-0.1l0.1-0.1
	l0.2-0.2h0h0l0.2-0.1l0,0h0.1l0.1-0.1l0.1-0.1l0.1-0.1l0.1-0.1h0h0l0.2-0.1h0l0,0l0.1-0.1l0.1-0.1l0.1-0.1l0.1-0.1h0h0l0.3-0.4h0.1
	l0,0l0.1-0.1l0.1-0.1l0.1-0.1l0.1-0.1h0h0l0.3-0.2h0.1l0,0l0.1-0.1l0.1-0.1l0.1-0.1l0.1-0.1h0.1l0,0l0.2-0.1h0.1l0,0l0.1-0.1
	l0.2-0.3h0.1h0c1.5-0.8,2-2.7,1.2-4.2s-2.7-2-4.2-1.2h0l-0.1,0.1l-0.1,0l-0.1,0.1h-0.1l0,0L49,40.5h0h-0.1l-0.1,0.1l-0.1,0.1l-0.1,0
	l-0.1,0.1h-0.1l0,0l-0.2,0.1h-0.1h0L48,41l-0.1,0.2l-0.1,0.1l-0.1,0.1h-0.1l0,0l-0.2,0.1h-0.1h0l-0.1,0.1l-0.1,0.1L47,41.6l-0.1,0.1
	h-0.1h0L46.5,42h0h-0.1L46.3,42l-0.1,0.1l-0.1,0.1H46l0,0h-0.1l-0.2,0.1h0h0l-0.1,0.1l-0.1,0.1l-0.1,0.1l-0.1,0.1l0,0h-0.1l-0.2,0.1
	h0h-0.1L44.5,43l-0.1,0.1l-0.1,0.1l-0.1,0.1h-0.1l0,0L44,43.3h-0.1h0l-0.1,0.1l-0.1,0.1l-0.1,0.1l0,0l0,0l-0.1-0.1h-0.1l0,0
	l-0.1-0.1l0,0l0,0h-0.1L43,43.3l0,0h-0.1l0,0l-0.4-0.2h-0.1l0,0l-0.1-0.1h0h-0.1l-0.1,0l0,0L42,43h0h-0.1l-0.2-0.1l0,0h0l0,0h-0.1
	l0,0l0,0h-0.1h-0.1l0,0l-0.1,0h0l0,0l0,0l-0.5-0.6h0h-0.1l-0.1-0.1l0,0h-0.1l-0.1,0l0,0h-0.1l0,0l0,0h-0.1L40,42h0h-0.1h-0.1l0,0h0
	h0h-0.1l0,0l-0.1-0.1h-0.1h0l-0.2-0.1h-0.1l0,0L39,41.8h-0.1l0,0l-0.1,0l0,0l-0.3-0.6h-0.1h0L38.2,41h-0.1l0,0L38,40.9l0,0l0,0l0,0
	l-0.1-0.1l0,0h-0.1l0,0l0,0h-0.1l-0.2-0.1h0h-0.1l-0.1,0h-0.1l0,0l-0.1,0l0,0h-0.1l0,0l0,0l0,0H37l-0.2-0.1h-0.1l0,0h0
	c-1.1-1.3-3-1.4-4.2-0.3c-1.3,1.1-1.4,3-0.3,4.2C32.5,44.9,33,45.2,33.5,45.4z"/>
<path class="st0" d="M46.5,67.8c0-1.7-1.4-3-3-3c-1.7,0-3,1.4-3,3v0.1c0,0,0,0.1,0,0.1s0,0.1,0,0.1v0.1c0,0,0,0,0,0.1v0.3
	c0,0,0,0,0,0.1s0,0,0,0.1v0.1c0,0,0,0.1,0,0.1s0,0.1,0,0.1v0.1c0,0,0,0,0,0.1s0,0,0,0.1v0.2c0,0,0,0,0,0.1s0,0,0,0.1v0.1
	c0,0,0,0.1,0,0.1s0,0.1,0,0.1v0.1c0,0,0,0,0,0.1v0.3c0,0,0,0,0,0.1s0,0,0,0.1v0.1c0,0,0,0.1,0,0.1s0,0.1,0,0.1v0.1c0,0,0,0,0,0.1
	s0,0,0,0.1v0.2c0,0,0,0,0,0.1s0,0,0,0.1v0.1c0,0,0,0.1,0,0.1s0,0.1,0,0.1v0.1c0,0,0,0,0,0.1s0,0,0,0.1v0.5c0,0,0,0.1,0,0.1
	s0,0.1,0,0.1v0.2c0,0,0,0,0,0.1v0.2c0,0,0,0,0,0.1s0,0,0,0.1v0.1c0,0,0,0.1,0,0.1s0,0.1,0,0.1V74c0,0,0,0,0,0.1s0,0,0,0.1v0.2
	c0,0,0,0,0,0.1v0.2c0,0,0,0.1,0,0.1s0,0.1,0,0.1v0.5c0,0,0,0,0,0.1s0,0,0,0.1v0.1c0,0,0,0.1,0,0.1s0,0.1,0,0.1v0.1c0,0,0,0,0,0.1
	s0,0,0,0.1v0.2c0,0,0,0,0,0.1v0.2c0,0,0,0.1,0,0.1s0,0.1,0,0.1v0.5c0,0,0,0,0,0.1s0,0,0,0.1v0.1c0,1.7,1.4,3,3,3c1.7,0,3-1.4,3-3v0
	c0,0,0,0,0-0.1s0,0,0-0.1V77c0,0,0,0,0-0.1s0,0,0-0.1v-0.1c0,0,0-0.1,0-0.1s0-0.1,0-0.1v-0.1c0,0,0,0,0-0.1s0,0,0-0.1V76
	c0,0,0,0,0-0.1s0,0,0-0.1v-0.1c0,0,0-0.1,0-0.1s0-0.1,0-0.1v-0.1c0,0,0,0,0-0.1s0,0,0-0.1v-0.2c0,0,0,0,0-0.1s0,0,0-0.1v-0.1
	c0,0,0-0.1,0-0.1s0-0.1,0-0.1v-0.1c0,0,0,0,0-0.1s0,0,0-0.1v-0.2c0,0,0,0,0-0.1s0,0,0-0.1v-0.1c0,0,0-0.1,0-0.1s0-0.1,0-0.1v-0.1
	c0,0,0,0,0-0.1s0,0,0-0.1v-0.2c0,0,0,0,0-0.1s0,0,0-0.1v-0.1c0,0,0-0.1,0-0.1s0-0.1,0-0.1v-0.1c0,0,0,0,0-0.1s0,0,0-0.1v-0.2
	c0,0,0,0,0-0.1s0,0,0-0.1v-0.2c0,0,0-0.1,0-0.1s0-0.1,0-0.1v-0.1c0,0,0,0,0-0.1s0,0,0-0.1v-0.2c0,0,0,0,0-0.1s0,0,0-0.1V71
	c0,0,0-0.1,0-0.1s0-0.1,0-0.1v-0.1c0,0,0,0,0-0.1s0,0,0-0.1v-0.3c0,0,0,0,0-0.1s0,0,0-0.1V70c0,0,0-0.1,0-0.1s0-0.1,0-0.1v-0.1
	c0,0,0,0,0-0.1s0,0,0-0.1v-0.2c0,0,0,0,0-0.1s0,0,0-0.1V69c0,0,0-0.1,0-0.1s0-0.1,0-0.1v-0.1c0,0,0,0,0-0.1s0,0,0-0.1v-0.3
	c0,0,0,0,0-0.1s0,0,0-0.1v-0.1c0,0,0-0.1,0-0.1S46.5,67.9,46.5,67.8L46.5,67.8z"/>
<path class="st0" d="M28.3,35.3L28.3,35.3L28.3,35.3L28.3,35.3L28,35.2l0,0h0l-0.1-0.1l-0.1,0l-0.2-0.2l-0.1-0.1l0,0l0,0l-0.2-0.1h0
	l0,0l-0.1-0.1l-0.1,0l-0.1-0.1l-0.1-0.1h0l0,0l-0.4-0.3h0l0,0l-0.1-0.1l-0.1,0L26,34.1L25.9,34h0l0,0l-0.3-0.2h0h0l-0.1-0.1l-0.1,0
	l-0.1-0.1L25,33.6l0,0h0l-0.2-0.1l0,0h-0.1l-0.2-0.2l-0.1-0.1l-0.1-0.1l-0.1-0.1l0,0h0L23.9,33l0,0h-0.1l-0.1-0.1l-0.1,0l-0.2-0.1
	l-0.1-0.1h0l0,0l-0.2-0.1l0,0h0L23,32.5l-0.1,0l-0.1-0.1l-0.3-0.2l0,0l0,0l-0.2-0.1l0,0h0l-0.1-0.1l-0.1,0L22,31.9l-0.1-0.1h0l0,0
	l-0.2-0.1l0,0h0l-0.1-0.1h-0.1l-0.1-0.1h0c-1.5-0.8-3.3-0.3-4.1,1.2c-0.8,1.5-0.3,3.3,1.2,4.1h0h0.1l0.1,0.1l0.1,0.1l0,0h0l0.2,0.1
	l0,0H19l0,0h0.1l0.1,0.1l0.1,0.1l0,0h0l0.2,0.2h0l0,0l0.1,0l0.1,0.1l0.1,0.1l0.1,0.1l0,0h0l0.2,0.1h0l0,0l0.1,0.1l0.1,0l0.3,0.2h0.1
	l0,0h0l0.2,0.1l0,0h0l0.1,0.1l0.2,0.2l0.1,0.1l0.1,0.1l0,0h0.1l0.2,0.1l0,0h0l0.1,0.1l0.1,0l0.1,0.1h0.1l0,0l0,0l0.2,0.1h0.1l0,0
	l0.1,0.1l0.1,0l0.1,0.1l0.1,0h0l0,0l0.2,0.1h0.1l0,0l0.1,0.1l0.1,0l0.1,0.1l0.1,0.1h0l0,0l0.2,0.1l0.5,0.5l0,0l0.1,0.1l0.1,0
	l0.1,0.1l0.1,0.1l0,0h0l0.2,0.1l0,0h0.1h0c1.4,0.8,3.3,0.3,4.1-1.1C30.2,38,29.8,36.2,28.3,35.3z"/>
<path class="st0" d="M13,26.3L13,26.3L13,26.3h-0.1l-0.2-0.1h-0.1h0l-0.1-0.1l-0.1,0L12.2,26L12.1,26h0H12l-0.2-0.1h0h-0.1l-0.2-0.3
	l-0.1,0l-0.1-0.1l-0.1-0.1h0h0l-0.2-0.2h0h-0.1l-0.1-0.1l-0.1,0L10.5,25L10.4,25h-0.1l0,0l-0.2-0.1h-0.1l0,0l-0.1,0l-0.1,0l-0.1-0.1
	l-0.2-0.2l0,0l0,0h0.1l0.1-0.1l0.1-0.1l0.1-0.1l0.1-0.1l0,0h0.1l0.2-0.1h0.1l0,0l0.2-0.2l0.1-0.1l0.1-0.1l0.1-0.1l0,0h0.1l0.2-0.1
	l0,0h0.1l0.1-0.1l0.1-0.1l0.1-0.1l0.1-0.1h0.1h0l0.2-0.1H12l0,0h0c1.5-0.8,2-2.7,1.2-4.2s-2.7-2-4.2-1.2l0,0H9h0H8.9l-0.2,0.1H8.6
	l0,0l-0.1,0.1l-0.1,0.1l0.1-0.1l-0.1,0.1l0,0H8.3l-0.2,0.1l0,0H8l-0.1,0.1l-0.1,0.1l-0.1,0.1l-0.2,0.2H7.5H7.4l-0.2,0.1H7.1H7.1
	L7,18.9l-0.1,0.1L6.8,19L6.6,19l0,0l-0.1,0.2l-0.2,0.1H6.2l0,0l-0.1,0.1L6,19.5l-0.1,0.1l-0.1,0.1H5.8H5.7l-0.2,0.2H5.5H5.4
	l-0.1,0.1l-0.1,0.1L5.1,20L5,20H4.9H4.9l-0.2,0.1H4.6H4.5l-0.1,0.1l-0.1,0.1l-0.1,0.1l-0.1,0.1H4H4l-0.2,0.1H3.7l0,0l-0.2,0.4
	l-0.1,0.1L3.3,21l-0.1,0.1H3.1H3.1l-0.2,0.2H2.8H2.8l-0.1,0.1l-0.1,0.1l-0.1,0.1l-0.1,0.1H2.4H2.3l-0.2,0.1l0,0H2l-0.1,0.1l-0.1,0.1
	l-0.1,0H1.5l-0.1,0.1L1.3,22l0,0l0,0.3H1.2l-0.1,0.1l0,0L1,22.4l0,0l-0.1,0.1l0,0l-0.1,0.1l-0.1,0.1l0,0l-0.1,0.1L0.5,23l0,0
	l-0.1,0.1l-0.1,0.2l-0.1,0.1l-0.1,0.2l0,0v0.1l-0.1,0.1l0,0v0.1V24l0,0c0,0,0,0.1,0,0.1s0,0.1,0,0.1l0,0c0,0.1,0,0.1,0,0.2l0,0
	c0,0,0,0,0,0.1v0.1l0,0l0,0c0,0,0,0,0,0.1s0,0.1,0,0.1v0.5c0,0,0,0,0,0.1s0,0,0,0.1v0.1c0,0,0,0.1,0,0.1s0,0.1,0,0.1v0.9
	c0,0,0,0.1,0,0.1s0,0.1,0,0.1v0.7c0,0,0,0.1,0,0.1s0,0.1,0,0.1v0.7c0,0,0,0.1,0,0.1s0,0.1,0,0.1v0.7c0,0,0,0.1,0,0.1s0,0.1,0,0.1
	v0.7c0,0,0,0.1,0,0.1s0,0.1,0,0.1v0.7c0,0,0,0.1,0,0.1s0,0.1,0,0.1v0.7c0,0,0,0.1,0,0.1s0,0.1,0,0.1v0.7c0,0,0,0.1,0,0.1
	s0,0.1,0,0.1v0.5c0,0,0,0,0,0.1s0,0,0,0.1v0.1c0,1.7,1.4,3,3,3s3-1.4,3-3v-0.1c0,0,0,0,0-0.1s0,0,0-0.1v-0.2c0,0,0,0,0-0.1
	s0,0,0-0.1v-0.1c0,0,0-0.1,0-0.1s0-0.1,0-0.1v-0.2c0,0,0,0,0-0.1s0,0,0-0.1v-0.2c0,0,0,0,0-0.1s0,0,0-0.1v-0.1c0,0,0-0.1,0-0.1
	s0-0.1,0-0.1v-0.1c0,0,0,0,0-0.1s0,0,0-0.1v-0.2c0,0,0,0,0-0.1s0,0,0-0.1v-0.1c0,0,0-0.1,0-0.1s0-0.1,0-0.1v-0.1c0,0,0,0,0-0.1
	s0,0,0-0.1V31c0,0,0,0,0-0.1s0,0,0-0.1v-0.1c0,0,0-0.1,0-0.1s0-0.1,0-0.1v-0.1c0,0,0,0,0-0.1s0,0,0-0.1V30c0,0,0,0,0-0.1s0,0,0-0.1
	v-0.1c0,0,0-0.1,0-0.1l0,0l0,0l0.1,0.1l0.1,0.1h0.1l0,0l0.2,0.1h0.1l0,0l0.1,0L7,30L7.1,30l0.1,0.1h0.1h0.1l0.2,0.2h0.1h0.1l0.1,0.1
	l0.1,0L8,30.5l0.1,0.1h0h0.1l0.2,0.1h0.1h0.1l0.1,0.1l0.1,0l0.1,0.1l0.1,0.1l0,0H9l0.2,0.3h0.1h0.1l0.1,0.1l0.1,0.1l0.1,0.1l0.1,0.1
	h0.1l0,0l0.2,0.1h0h0.1h0c1.5,0.7,3.3,0.1,4-1.4C14.9,28.8,14.4,27.1,13,26.3z"/>
<path class="st0" d="M59.3,41c0.5,0,1-0.1,1.5-0.4h0.1h0.1h0.1l0.2-0.1h0.1h0.1l0.1-0.1l0.1-0.3h0.1l0.1-0.1h0.1h0.1L62,40H62h0.1
	l0.1-0.1l0.1-0.1l0.1-0.1l0.1-0.2h0.1h0.1l0.2-0.1h0.1H63l0.1-0.1l0.1-0.1l0.1-0.2h0.1h0.1h0.1l0.2-0.1h0.1h0.1l0.1-0.1L64,39
	l0.1-0.1l0.1-0.1l0,0h0.1l0.3-0.3h0.1h0.1l0.1-0.1l0.1-0.1l0.1-0.1l0.1-0.1h0.1h0.1l0.2-0.1l0,0h0.1l0.1-0.1l0.1-0.1l0.1-0.1
	l0.1-0.1h0.1l0,0l0.2-0.1h0.1l0,0l0.1-0.1l0.1-0.1l0.1-0.1l0.1-0.1h0.1h0.1l0.2-0.1H67l0,0l0.1-0.1l0.1-0.1l0.3-0.4l0.1-0.1h0.1l0,0
	l0.2-0.1H68l0,0l0.1-0.1l0.1-0.1h0.1h0.1c1.5-0.8,2-2.7,1.2-4.2c-0.8-1.5-2.7-2-4.2-1.2h-0.1l-0.1,0.1l0-0.1h-0.1h-0.1l0,0l-0.2,0.1
	h-0.1h-0.1l-0.1,0.1l-0.1,0.2l-0.1,0l-0.1,0.1h-0.1l0,0L64,31.9H64h-0.1l-0.1,0.1L63.7,32L63.6,32l-0.2,0.2h-0.1l0,0l-0.2,0.1h-0.1
	l0,0L63,32.4l-0.1,0.1l-0.1,0.1l-0.2,0.2l0,0h-0.1l-0.2,0.1h-0.1h-0.1L62,32.9l-0.1,0.1L61.8,33L61.7,33h-0.1h-0.1l-0.2,0.1l0,0
	h-0.1l-0.1,0.1l-0.1,0.1L61,33.3l-0.1,0.1h-0.1h-0.1l-0.3,0.4h-0.1h-0.1l-0.1,0.1l-0.1,0.1L60.1,34L60,34.1l0,0h-0.1l-0.2,0.1h-0.1
	h-0.1l-0.1,0.1l-0.1,0.1l-0.1,0.1l-0.1,0.1h-0.1h-0.1l-0.2,0.1h-0.1h-0.1l-0.1,0.1L58.5,35L58.4,35l-0.1,0.1h-0.1h-0.1l-0.3,0.1
	h-0.1h-0.1h-0.1c-1.6,0.5-2.5,2.1-2,3.7C56.2,40.5,57.7,41.4,59.3,41z"/>
<path class="st0" d="M49.8,90.1L49.8,90.1l-0.2,0.1l-0.1,0.1l-0.1,0.1l0,0h-0.1l-0.2,0.1h-0.1h0l-0.1,0.1l-0.1,0.1l-0.1,0.1
	l-0.2,0.2h-0.1l0,0L48.2,91h-0.1l0,0L48.1,91L48,91.1l-0.2,0.2l-0.1,0.1h-0.1l0,0l-0.2,0.1h-0.1l0,0l-0.1,0.1l-0.1,0.1L47,91.6
	l-0.1,0.1h0h-0.1l-0.3,0.3v-0.1c0,0,0,0,0-0.1s0,0,0-0.1v-0.1c0,0,0-0.1,0-0.1s0-0.1,0-0.1v-0.1c0,0,0,0,0-0.1s0,0,0-0.1v-0.2
	c0,0,0,0,0-0.1s0,0,0-0.1v-0.1c0,0,0-0.1,0-0.1s0-0.1,0-0.1v-0.1c0,0,0,0,0-0.1s0,0,0-0.1v-0.2c0,0,0,0,0-0.1s0,0,0-0.1v-0.1
	c0,0,0-0.1,0-0.1s0-0.1,0-0.1v-0.1c0,0,0,0,0-0.1s0,0,0-0.1v-0.2c0,0,0,0,0-0.1s0,0,0-0.1v-0.1c0,0,0-0.1,0-0.1s0-0.1,0-0.1v-0.1
	c0,0,0,0,0-0.1s0,0,0-0.1V88c0,0,0,0,0-0.1s0,0,0-0.1v-0.1c0,0,0-0.1,0-0.1s0-0.1,0-0.1v-0.1c0-1.7-1.4-3-3-3c-1.7,0-3,1.4-3,3v0.1
	c0,0,0,0.1,0,0.1s0,0.1,0,0.1v0.2c0,0,0,0,0,0.1v0.3c0,0,0,0,0,0.1s0,0,0,0.1v0.1c0,0,0,0.1,0,0.1s0,0.1,0,0.1v0.1c0,0,0,0,0,0.1
	s0,0,0,0.1v0.3c0,0,0,0,0,0.1v0.1c0,0,0,0.1,0,0.1s0,0.1,0,0.1v0.2c0,0,0,0,0,0.1v0.2c0,0,0,0,0,0.1s0,0,0,0.1v0.1c0,0,0,0.1,0,0.1
	s0,0.1,0,0.1v0.1c0,0,0,0,0,0.1s0,0,0,0.1v0.3c0,0,0,0,0,0.1s0,0,0,0.1v0.1c0,0,0,0.1,0,0.1s0,0.1,0,0.1v0.5l0,0h-0.1l0,0l-0.1-0.1
	h-0.1l0,0L40,92h-0.1h0l-0.1-0.1h0l0,0h-0.1l-0.2-0.1l0,0l0,0h0l-0.2-0.1h-0.1H39H39l0,0l0,0l-0.2-0.5h-0.1l0,0l-0.1-0.1h0h-0.1
	L38.2,91l0,0h0L38,91H38h0h-0.1l0,0l-0.1-0.1l0,0l0,0l-0.2-0.1h0h0l-0.1-0.1h-0.1l0,0l-0.4-0.5h-0.1h-0.1l-0.2-0.1h-0.1l0,0h0
	c-1.5-0.8-3.3-0.2-4.1,1.2c0,0,0,0.1,0,0.1c-0.7,1.5-0.2,3.2,1.3,4h0.1h0h0.1l0.1,0.1l0,0l0.1,0.1H34l0,0l0.2,0.1l0,0h0.1l0,0
	l0.1,0.1h0.1h0l0.1,0.1l0,0h0.1l0,0l0,0h0l0.4,0.5h0h0.1l0.1,0.1l0,0h0.1h0.1l0,0l0.1,0.1h0h0.1l0.2,0.1H36l0,0l0.1,0.1h0.1l0,0h0.1
	l0,0l0.3,0.4l0,0h0.1l0.2,0.1h0h0l0.1,0.2h0.1h0l0.1,0.1l0,0l0.1,0.1h0.1h0l0.2,0.1l0,0h0l0.1,0.1l0,0l0,0l0,0h0.1l0,0l0.1,0.1h0.1
	l0,0l0.4,0.4h0h0.1l0.1,0.1l0,0l0,0h0.1l0.2,0.2l0,0l0,0h0l0.2,0.1h0.1l0,0l0.1,0.1h0.1h0h0.1l0,0l0.1,0.1h0.1l0,0l0.2,0.1h0h0
	l0.1,0.1h0.1l0,0l0.1,0.1l0,0h0.1l0,0l0,0h0l0.2,0.1h0.1h0.1l0.1,0.1h0.1l0,0l0.4,0.7h0.1h0h0.1l0.2,0.1h0l0,0l0,0l0,0h0.1l0,0
	l0.3,0.1l0,0h0.1l0.2,0.1h0.1h0.2H43h0.5h0.3H44h0.2h0.1h0l0.2-0.1h0.1l0.3-0.2l0,0h0l0,0l0,0h0l0.2-0.1l0,0h0.1l0.1-0.1l0.1-0.1
	l0.1-0.1l0.2,0H46l0,0l0.2-0.1l0,0h0.1l0.1-0.1l0.2-0.2l0.1-0.1l0.1-0.1h0.1l0,0l0.2-0.1l0,0h0.1l0.1-0.1l0.1-0.1l0.2-0.2l0.1-0.1
	l0,0h0.1l0.2-0.1h0l0,0l0.1-0.1l0.1-0.1l0.1-0.1l0.2-0.2l0,0h0.1l0.2-0.1h0l0,0l0.1-0.1l0.1-0.1l0.1-0.1l0.1-0.1l0,0h0.1l0.2-0.1h0
	h0l0.1-0.1l0.1-0.1l0.1-0.1l0.1-0.1h0.1l0,0l0.4-0.4h0.1l0,0l0.1-0.1l0.1-0.1l0.1-0.1l0.1-0.1h0.1l0,0l0.3-0.2h0.1l0,0l0.1-0.1
	l0.1-0.1l0.1-0.1l0.1-0.1h0.1l0,0l0.2-0.1l0,0h0.1l0.1-0.1l0.2-0.3h0.1h0c1.5-0.8,2.1-2.7,1.3-4.1C53.1,89.9,51.3,89.4,49.8,90.1z"
	/>
<path class="st0" d="M86.5,76.4l0.1-0.1l0.1-0.1l0.1-0.1l0.1-0.1l0.1-0.2v-0.1l0.1-0.2c0,0,0-0.1,0-0.1c0-0.1,0-0.1,0-0.2
	s0-0.1,0-0.1s0-0.1,0-0.2s0-0.2,0-0.2s0,0,0-0.1l0,0l0,0c0,0,0,0,0-0.1s0,0,0-0.1v-0.3c0,0,0,0,0-0.1V74c0,0,0-0.1,0-0.1
	s0-0.1,0-0.1v-0.1c0,0,0,0,0-0.1s0,0,0-0.1v-0.3c0,0,0,0,0-0.1V73c0,0,0-0.1,0-0.1s0-0.1,0-0.1v-0.1c0,0,0,0,0-0.1v-0.4
	c0,0,0,0,0-0.1V72c0,0,0-0.1,0-0.1s0-0.1,0-0.1v-0.2c0,0,0,0,0-0.1v-0.2c0,0,0,0,0-0.1s0,0,0-0.1v-0.1c0,0,0-0.1,0-0.1s0-0.1,0-0.1
	v-0.1c0,0,0,0,0-0.1s0,0,0-0.1v-0.2c0,0,0,0,0-0.1s0,0,0-0.1v-0.1c0,0,0-0.1,0-0.1s0-0.1,0-0.1v-0.2c0,0,0,0,0-0.1v-0.2
	c0,0,0,0,0-0.1s0,0,0-0.1v-0.1c0,0,0-0.1,0-0.1s0-0.1,0-0.1v-0.1c0,0,0,0,0-0.1s0,0,0-0.1v-0.3c0,0,0,0,0-0.1v-0.1c0,0,0-0.1,0-0.1
	s0-0.1,0-0.1v-0.2c0,0,0,0,0-0.1v-0.3c0,0,0,0,0-0.1s0,0,0-0.1v-0.1c0,0,0-0.1,0-0.1s0-0.1,0-0.1v-0.1c0,0,0,0,0-0.1s0,0,0-0.1v-0.2
	c0,0,0,0,0-0.1v-0.2c0,0,0-0.1,0-0.1s0-0.1,0-0.1v-0.1c0,0,0,0,0-0.1s0,0,0-0.1v-0.3c0,0,0,0,0-0.1v-0.1c0,0,0-0.1,0-0.1
	s0-0.1,0-0.1V65c0-1.7-1.4-3-3-3c-1.7,0-3,1.4-3,3v0.1c0,0,0,0.1,0,0.1s0,0.1,0,0.1v0.1c0,0,0,0,0,0.1s0,0,0,0.1v0.2c0,0,0,0,0,0.1
	s0,0,0,0.1V66c0,0,0,0.1,0,0.1s0,0.1,0,0.1v0.1c0,0,0,0,0,0.1s0,0,0,0.1v0.2c0,0,0,0,0,0.1s0,0,0,0.1V67c0,0,0,0.1,0,0.1
	s0,0.1,0,0.1v0.1c0,0,0,0,0,0.1s0,0,0,0.1v0.2c0,0,0,0,0,0.1s0,0,0,0.1v0.1c0,0,0,0.1,0,0.1s0,0.1,0,0.1v0.1c0,0,0,0,0,0.1
	s0,0,0,0.1v0.2c0,0,0,0,0,0.1s0,0,0,0.1v0.1c0,0,0,0.1,0,0.1s0,0.1,0,0.1v0.1c0,0,0,0,0,0.1s0,0,0,0.1v0.2c0,0,0,0,0,0.1s0,0,0,0.1
	v0.1c0,0,0,0.1,0,0.1s0,0.1,0,0.1v0.1c0,0,0,0,0,0.1s0,0,0,0.1v0.2c0,0,0,0,0,0.1s0,0,0,0.1v0.1c0,0,0,0.1,0,0.1s0,0.1,0,0.1v0.2
	c0,0,0,0,0,0.1s0,0,0,0.1v0.2c0,0,0,0,0,0.1s0,0,0,0.1v0.1c0,0,0,0.1,0,0.1s0,0.1,0,0.1v0.2c0,0,0,0,0,0.1s0,0,0,0.1v0.2
	c0,0,0,0,0,0.1s0,0,0,0.1v0.1c0,0,0,0.1,0,0.1l0,0h-0.1L80.6,73L80.5,73l0,0.1l-0.1,0.1h-0.1h-0.1l-0.2,0.1l0,0H80l-0.1,0.1
	l-0.1,0.1l-0.1,0.1l-0.1,0.1h-0.1h-0.1l-0.2,0.1l0,0h-0.1l-0.1,0.1L79,73.8l-0.1,0.1l-0.1,0.1h-0.1h-0.1L78.5,74h-0.1l0,0l-0.1,0.1
	l-0.1,0.1l-0.1,0.1l-0.1,0.1h-0.1h-0.1l-0.3,0.5h-0.1l0,0l-0.1,0.1l-0.1,0.1l-0.1,0.1L77,75H77h-0.1l-0.2,0.2h-0.1h-0.1l-0.1,0.1
	l-0.1,0.1l-0.1,0.1l-0.1,0.1h-0.1H76l-0.2,0.1h-0.1h-0.1l-0.1,0.1l-0.1,0.2l-0.1,0.1L75.3,76h-0.1l0,0L75,76.2h0h-0.1h-0.1
	c-1.5,0.8-2,2.7-1.2,4.1s2.7,2,4.1,1.2h0.1h0.1l0,0l0.2-0.1h0.1l0,0l0.2-0.2l0.1-0.1l0.1,0l0.1-0.1h0.1h0.1l0.2-0.1H79h0.1l0.1-0.1
	l0.1-0.1l0.1-0.1l0.1-0.2l0,0h0.1l0.2-0.1h0.1h0.1l0.1-0.1l0.2-0.2l0.1-0.1l0.1-0.1h0.1h0.1l0.2-0.1h0.1h0.1l0.1-0.1l0.1-0.1
	l0.1-0.1l0.1-0.1h0.1l0,0l0.2-0.3h0.1h0.1l0.1-0.1l0.1-0.1l0.1-0.1h0.1l0,0h0.1l0.2-0.1h0.1h0.1l0.1-0.1l0.1-0.1l0.1-0.1l0.1-0.1
	l0,0H83l0.2-0.1h0.1h0.1l0.2-0.3l0.1-0.1l0.1-0.1l0.1-0.1h0.1l0,0l0.2-0.1h0.1h0.1l0.1-0.1l0.1-0.1l0.1-0.2l0.1-0.1h0.1l0,0l0.2-0.1
	l0,0H85l0.1-0.1l0.1-0.1h0.1h0.2l0.2-0.1l0.1-0.1l0.1-0.1l0.1-0.1l0.1-0.1l0.1-0.1l0.1-0.1L86.5,76.4z"/>
<path class="st0" d="M65.5,81.1L65.5,81.1l-0.2,0.1l-0.1,0.1h-0.1h-0.1H65l-0.2,0.1h-0.1h-0.1l-0.1,0.1l-0.1,0.1l-0.1,0.1l-0.1,0.1
	h-0.1l0,0L64,81.7h-0.1l0,0l-0.1,0.1l-0.1,0.1l-0.2,0.3l-0.1,0.1h-0.1l0,0l-0.2,0.1h-0.1l0,0L63,82.4l-0.1,0.1l-0.1,0.1l-0.2,0.2
	h-0.1h-0.1l-0.2,0.1l0,0h-0.1L62,82.9l-0.1,0.1L61.8,83l-0.1,0.1h-0.1h-0.1l-0.2,0.1l0,0h-0.1l-0.1,0.1l-0.1,0.1L61,83.4l-0.1,0.1
	h-0.1h-0.1l-0.3,0.4l0,0h-0.1l-0.1,0.1L60.2,84L60.1,84L60,84.1l0,0H60l-0.2,0.1h-0.1l0,0l-0.1,0.1l-0.1,0.1l-0.1,0.1l-0.1,0.1h-0.1
	h-0.1l-0.2,0.1h-0.1l0,0l-0.1,0.1L58.5,85L58.4,85l-0.1,0.1l0,0h-0.1l-0.3,0.1l0,0l0,0h-0.1c-1.5,0.8-2,2.7-1.2,4.1s2.7,2,4.1,1.2
	h0.1h0.1H61l0.2-0.1l0,0h0.1l0.1-0.1l0.1-0.1l0-0.1l0.1-0.1h0.1l0,0l0.2-0.1l0,0H62l0.1-0.1l0.1-0.1l0.1-0.1l0.2-0.2h0.1l0,0
	l0.2-0.1h0.1h0.1l0.1-0.1l0.1-0.1l0.1-0.2h0.1l0,0h0.1l0.2-0.1h0.1h0.1l0.1-0.1L64,89l0.1-0.1l0.1-0.1l0,0h0.1l0.3-0.3h0.1h0.1
	l0.1-0.1l0.1-0.1l0.1-0.1l0.1-0.2l0,0h0.1l0.2-0.1h0.1h0.1l0.1-0.1l0.1-0.1l0.1-0.1l0.1-0.1h0.1l0,0l0.2-0.1h0.1l0,0l0.1-0.1
	l0.2-0.3l0.1-0.1l0.1-0.1h0.1l0,0l0.2-0.1h0.1h0.1l0.1-0.1l0.1-0.1l0.2-0.2l0.1-0.1h0.1l0,0l0.2-0.1l0,0H68l0.1-0.1l0.1-0.1h0.1h0.1
	c1.5-0.8,2.1-2.6,1.4-4.2C68.9,80.9,67,80.3,65.5,81.1z"/>
<path class="st0" d="M87,45.3c0-1.7-1.4-3-3-3c-1.7,0-3,1.4-3,3v0.1c0,0,0,0.1,0,0.1s0,0.1,0,0.1v0.1c0,0,0,0,0,0.1s0,0,0,0.1v0.3
	c0,0,0,0,0,0.1s0,0,0,0.1v0.1c0,0,0,0.1,0,0.1s0,0.1,0,0.1v0.1c0,0,0,0,0,0.1s0,0,0,0.1v0.2c0,0,0,0,0,0.1s0,0,0,0.1v0.1
	c0,0,0,0.1,0,0.1s0,0.1,0,0.1v0.1c0,0,0,0,0,0.1s0,0,0,0.1V48c0,0,0,0,0,0.1s0,0,0,0.1v0.1c0,0,0,0.1,0,0.1s0,0.1,0,0.1v0.1
	c0,0,0,0,0,0.1s0,0,0,0.1V49c0,0,0,0,0,0.1s0,0,0,0.1v0.1c0,0,0,0.1,0,0.1s0,0.1,0,0.1v0.1c0,0,0,0,0,0.1s0,0,0,0.1v0.2
	c0,0,0,0,0,0.1s0,0,0,0.1v0.2c0,0,0,0.1,0,0.1s0,0.1,0,0.1v0.1c0,0,0,0,0,0.1s0,0,0,0.1v0.2c0,0,0,0,0,0.1s0,0,0,0.1v0.2
	c0,0,0,0.1,0,0.1s0,0.1,0,0.1v0.1c0,0,0,0,0,0.1s0,0,0,0.1v0.2c0,0,0,0,0,0.1s0,0,0,0.1v0.1c0,0,0,0.1,0,0.1s0,0.1,0,0.1v0.1
	c0,0,0,0,0,0.1s0,0,0,0.1v0.2c0,0,0,0,0,0.1s0,0,0,0.1v0.1c0,0,0,0.1,0,0.1s0,0.1,0,0.1v0.1c0,0,0,0,0,0.1s0,0,0,0.1v0.2
	c0,0,0,0,0,0.1s0,0,0,0.1v0.1c0,0,0,0.1,0,0.1s0,0.1,0,0.1v0.1c0,0,0,0,0,0.1s0,0,0,0.1v0.2c0,0,0,0,0,0.1s0,0,0,0.1V55
	c0,1.7,1.4,3,3,3s3-1.4,3-3v-0.1c0,0,0,0,0-0.1s0,0,0-0.1v-0.2c0,0,0,0,0-0.1s0,0,0-0.1v-0.1c0,0,0-0.1,0-0.1s0-0.1,0-0.1V54
	c0,0,0,0,0-0.1s0,0,0-0.1v-0.5c0,0,0-0.1,0-0.1s0-0.1,0-0.1v-0.2c0,0,0,0,0-0.1v-0.2c0,0,0,0,0-0.1s0,0,0-0.1v-0.1c0,0,0-0.1,0-0.1
	s0-0.1,0-0.1V52c0,0,0,0,0-0.1s0,0,0-0.1v-0.2c0,0,0,0,0-0.1s0,0,0-0.1v-0.1c0,0,0-0.1,0-0.1s0-0.1,0-0.1v-0.1c0,0,0,0,0-0.1v-0.5
	c0,0,0-0.1,0-0.1s0-0.1,0-0.1v-0.1c0,0,0,0,0-0.1s0,0,0-0.1v-0.5c0,0,0-0.1,0-0.1s0-0.1,0-0.1v-0.1c0,0,0,0,0-0.1v-0.5
	c0,0,0-0.1,0-0.1s0-0.1,0-0.1v-0.1c0,0,0,0,0-0.1v-0.3c0,0,0,0,0-0.1s0,0,0-0.1v-0.1c0,0,0-0.1,0-0.1s0-0.1,0-0.1v-0.2
	c0,0,0,0,0-0.1v-0.5c0,0,0-0.1,0-0.1s0-0.1,0-0.1v-0.1c0,0,0,0,0-0.1s0,0,0-0.1v-0.3c0,0,0,0,0-0.1v-0.1c0,0,0-0.1,0-0.1
	S87,45.4,87,45.3C87,45.4,87,45.3,87,45.3z"/>
<path class="st0" d="M0,55c0,1.7,1.4,3,3,3s3-1.4,3-3v-0.1c0,0,0,0,0-0.1s0,0,0-0.1v-0.2c0,0,0,0,0-0.1s0,0,0-0.1v-0.1
	c0,0,0-0.1,0-0.1s0-0.1,0-0.1V54c0,0,0,0,0-0.1s0,0,0-0.1v-0.2c0,0,0,0,0-0.1s0,0,0-0.1v-0.1c0,0,0-0.1,0-0.1s0-0.1,0-0.1V53
	c0,0,0,0,0-0.1s0,0,0-0.1v-0.2c0,0,0,0,0-0.1s0,0,0-0.1v-0.1c0,0,0-0.1,0-0.1s0-0.1,0-0.1V52c0,0,0,0,0-0.1s0,0,0-0.1v-0.2
	c0,0,0,0,0-0.1s0,0,0-0.1v-0.1c0,0,0-0.1,0-0.1s0-0.1,0-0.1v-0.1c0,0,0,0,0-0.1s0,0,0-0.1v-0.2c0,0,0,0,0-0.1s0,0,0-0.1v-0.1
	c0,0,0-0.1,0-0.1s0-0.1,0-0.1v-0.1c0,0,0,0,0-0.1s0,0,0-0.1v-0.2c0,0,0,0,0-0.1s0,0,0-0.1v-0.1c0,0,0-0.1,0-0.1s0-0.1,0-0.1v-0.1
	c0,0,0,0,0-0.1s0,0,0-0.1v-0.2c0,0,0,0,0-0.1s0,0,0-0.1v-0.1c0,0,0-0.1,0-0.1s0-0.1,0-0.1v-0.1c0,0,0,0,0-0.1s0,0,0-0.1v-0.2
	c0,0,0,0,0-0.1s0,0,0-0.1v-0.1c0,0,0-0.1,0-0.1s0-0.1,0-0.1v-0.1c0,0,0,0,0-0.1s0,0,0-0.1v-0.3c0,0,0,0,0-0.1s0,0,0-0.1v-0.1
	c0,0,0-0.1,0-0.1s0-0.1,0-0.1v-0.1c0,0,0,0,0-0.1s0,0,0-0.1v-0.2c0,0,0,0,0-0.1s0,0,0-0.1v-0.1c0,0,0-0.1,0-0.1s0-0.1,0-0.1v-0.1
	c0-1.7-1.4-3-3-3s-3,1.4-3,3v0.1c0,0,0,0.1,0,0.1s0,0.1,0,0.1v0.5c0,0,0,0,0,0.1s0,0,0,0.1v0.1c0,0,0,0.1,0,0.1s0,0.1,0,0.1v0.7
	c0,0,0,0.1,0,0.1s0,0.1,0,0.1v0.7c0,0,0,0.1,0,0.1s0,0.1,0,0.1v0.7c0,0,0,0.1,0,0.1s0,0.1,0,0.1v0.8c0,0,0,0.1,0,0.1s0,0.1,0,0.1
	v0.8c0,0,0,0.1,0,0.1s0,0.1,0,0.1v0.7c0,0,0,0.1,0,0.1s0,0.1,0,0.1v0.7c0,0,0,0.1,0,0.1s0,0.1,0,0.1v0.7c0,0,0,0.1,0,0.1
	s0,0.1,0,0.1v0.5C0,54.9,0,54.9,0,55C0,55,0,54.9,0,55L0,55L0,55z"/>
<path class="st0" d="M28.3,85.4L28.3,85.4L28.3,85.4L28.3,85.4l-0.3-0.1h0h0l-0.1-0.1l-0.1-0.1l-0.2-0.2l-0.1-0.1l0,0h0l-0.2-0.1
	l0,0h0L27,84.7l-0.1-0.1l-0.1-0.1l-0.1-0.1l0,0h0l-0.2-0.1l0,0l-0.3-0.2l-0.1-0.1L26,84.1l-0.1-0.1L25.8,84l0,0h0l-0.3-0.2h0h0
	l-0.1-0.1l-0.1-0.1l-0.1-0.1L25,83.6h0l0,0l-0.2-0.1h0l0,0l-0.2-0.2l-0.1-0.1h-0.1l-0.1-0.1h0l0,0L24,83.1h0l0,0L23.8,83l-0.1-0.1
	l-0.2-0.2l-0.1-0.1h0l0,0l-0.2-0.1h0l0,0L23,82.5l-0.1-0.1l-0.1-0.1l-0.3-0.2h-0.1l0,0l-0.2-0.1h0l0,0l-0.1-0.1L22.1,82L22,81.9
	l-0.1-0.1l0,0l0,0l-0.2-0.1l0,0h0l-0.1-0.1l-0.1-0.1l-0.1-0.1h0c-1.5-0.8-3.3-0.3-4.1,1.2c-0.8,1.5-0.3,3.3,1.2,4.1h0h0.1l0.1,0.1
	l0.1,0.1l0,0h0l0.2,0.1l0,0H19l-0.1,0h0.1l0.1,0.1l0.1,0.1h0l0,0l0.2,0.1h0l0,0l0.1,0.1l0.1,0.1l0.1,0.1l0.1,0.1h0l0,0l0.2,0.1h0
	l0,0l0.1,0.1l0.1,0.1l0.3,0.3h0.1h0l0,0l0.2,0.1h0l0,0l0.1,0.1l0.2,0.2l0.1,0.1l0.1,0.1h0l0,0l0.2,0.1h0l0,0l0.1,0.1l0.1,0.1
	l0.1,0.1l0.2,0.2h0l0,0l0.2,0.1l0,0h0l0.1,0.1l0.1,0.1l0.1,0.1l0.1,0.1l0,0h0.1l0.2,0.1l0,0h0l0.1,0.1l0.1,0.1l0.1,0.1l0.1,0.1l0,0
	h0l0.5,0.4l0,0h0.1l0.1,0.1l0.1,0.1l0.1,0.1l0.1,0.1l0,0l0,0l0.2,0.1h0h0.1h0c1.4,0.8,3.3,0.3,4.1-1.1C30.2,88,29.7,86.2,28.3,85.4z
	"/>
<path class="st0" d="M13,76.3L13,76.3h-0.1l0,0l-0.2-0.1h-0.1h0l-0.1-0.1l-0.1-0.1L12.3,76L12.2,76h0h0l-0.2-0.1h-0.1l0,0l-0.3-0.3
	l-0.1-0.1l-0.1-0.1l-0.1-0.1h-0.1h-0.1l-0.1-0.2h0h-0.1l-0.1-0.1l-0.1-0.1L10.5,75L10.4,75l0,0h-0.1l-0.2-0.1h0H10l-0.1-0.1H9.8
	l-0.1-0.1l-0.2-0.2H9.5H9.4l-0.2-0.1h0H9.1L9,74.2H8.9l-0.1-0.1l-0.1-0.1H8.6l0,0L8.4,74h0H8.3l-0.1-0.1l-0.1-0.1L8,73.8l-0.1-0.1
	H7.8H7.7l-0.2-0.3H7.5l0,0l-0.1-0.1l-0.1-0.1l-0.1-0.1L7,73.2H6.9H6.8l-0.2-0.1l0,0H6.6l-0.1-0.1L6.3,73l-0.1-0.1l-0.1-0.1l0,0v-0.2
	c0,0,0,0,0-0.1s0,0,0-0.1v-0.2c0,0,0,0,0-0.1s0,0,0-0.1v-0.1c0,0,0-0.1,0-0.1s0-0.1,0-0.1v-0.1c0,0,0,0,0-0.1s0,0,0-0.1v-0.2
	c0,0,0,0,0-0.1s0,0,0-0.1v-0.1c0,0,0-0.1,0-0.1s0-0.1,0-0.1v-0.1c0,0,0,0,0-0.1s0,0,0-0.1v-0.2c0,0,0,0,0-0.1s0,0,0-0.1v-0.1
	c0,0,0-0.1,0-0.1s0-0.1,0-0.1v-0.1c0,0,0,0,0-0.1s0,0,0-0.1v-0.2c0,0,0,0,0-0.1s0,0,0-0.1v-0.1c0,0,0-0.1,0-0.1s0-0.1,0-0.1v-0.1
	c0,0,0,0,0-0.1s0,0,0-0.1v-0.3c0,0,0,0,0-0.1s0,0,0-0.1v-0.1c0,0,0-0.1,0-0.1s0-0.1,0-0.1v-0.2c0,0,0,0,0-0.1s0,0,0-0.1v-0.2
	c0,0,0,0,0-0.1s0,0,0-0.1v-0.1c0,0,0-0.1,0-0.1s0-0.1,0-0.1v-0.1c0,0,0,0,0-0.1s0,0,0-0.1v-0.2c0,0,0,0,0-0.1s0,0,0-0.1v-0.2
	c0,0,0-0.1,0-0.1s0-0.1,0-0.1v-0.1c0,0,0,0,0-0.1s0,0,0-0.1v-0.2c0,0,0,0,0-0.1s0,0,0-0.1v-0.1c0,0,0-0.1,0-0.1s0-0.1,0-0.1V65
	c0-1.7-1.4-3-3-3s-3,1.4-3,3v0.1c0,0,0,0.1,0,0.1s0,0.1,0,0.1v0.5c0,0,0,0,0,0.1s0,0,0,0.1V66c0,0,0,0.1,0,0.1s0,0.1,0,0.1V67
	c0,0,0,0.1,0,0.1s0,0.1,0,0.1V68c0,0,0,0.1,0,0.1s0,0.1,0,0.1v0.7c0,0,0,0.1,0,0.1s0,0.1,0,0.1v0.7c0,0,0,0.1,0,0.1s0,0.1,0,0.1v0.7
	c0,0,0,0.1,0,0.1s0,0.1,0,0.1v0.7c0,0,0,0.1,0,0.1s0,0.1,0,0.1v0.7c0,0,0,0.1,0,0.1S0,73,0,73v0.7c0,0,0,0.1,0,0.1s0,0.1,0,0.1v0.5
	c0,0,0,0,0,0.1s0,0,0,0.1v0.1c0,0.1,0,0.1,0,0.2s0,0.1,0,0.1s0,0.1,0,0.2s0,0.1,0,0.1v0.1v0.2v0.1l0.1,0.2v0.1l0.1,0.2l0.3,0.1
	l0.1,0.1l0.1,0.2l0.1,0.1l0.1,0.2l0.1,0.1L1,76.9L1.1,77l0.1,0.1l0.1,0.1h0.1l0.2,0.1l0,0h0.1h0.1l0,0l0.1,0.1L2,77.4H2l0,0l0.2,0.1
	l0,0h0.1l0.2,0.3l0.1,0.1l0.1,0.1L2.8,78h0.1H3l0.2,0.1h0.1h0.1l0.2,0.1h0.1l0.1,0.1l0.1,0.1h0.1h0.1l0.2,0.1l0,0h0.1l0.1,0.1
	l0.1,0.1l0.2,0.3l0.1,0.1h0.1l0,0L4.9,79H5H5L5.1,79l0.1,0.2h0.1l0.2,0.1h0.1h0.1l0.2,0.1h0.1l0,0L6,79.5l0.1,0.1l0.1,0.1l0.1,0.1
	h0.1h0.1l0.2,0.1l0,0h0.1l0.1,0.1l0.1,0.1l0.1,0.1l0.1,0.3l0,0h0.1l0.3,0.1h0.1h0.1l0.1,0.1h0.1l0.1,0.1l0.1,0.1h0.1h0.1l0.2,0.1
	h0.1h0l0.1,0.1l0.1,0.1l0.1,0.1l0.1,0.1H9l0,0l0.2,0.4h0.1h0l0.1,0.1l0.1,0.1l0.1,0.1l0.1,0.1h0.1h0l0.2,0.1h0.1h0.1h0
	c1.5,0.6,3.3-0.1,3.9-1.6C14.7,78.6,14.2,77.1,13,76.3z"/>
<path class="st0" d="M53.3,3.8L53.3,3.8h-0.1h-0.1l-0.2-0.1l0,0h-0.1h-0.1l0,0h-0.1l0,0h-0.1h-0.1h0h0h-0.1l0,0L52,3.2h0h-0.1h-0.1
	l0,0h-0.1l0,0h-0.1L51.5,3l0,0h-0.1h0h-0.1l0,0h-0.1l0,0h-0.1L50.9,3h-0.1h-0.1h-0.1l0,0l-0.2-0.3h-0.1l0,0h-0.1l0,0h0h0h-0.1l0,0
	H50h0h-0.1h-0.1l0,0h-0.1l-0.2-0.4l0,0h-0.1l0,0h-0.1h-0.1l0,0h-0.1h-0.1l0,0l0,0H49l0,0l0,0h0h-0.1l0,0h-0.1l-0.3-0.4l0,0l0,0h-0.1
	l0,0h-0.1h-0.1l0,0h-0.1l0,0l0,0h0H48l0,0h-0.1h-0.1h0l-0.4-0.5h-0.1h0l-0.1-0.1l0,0h-0.1H47l0,0h-0.1h-0.1h0l0,0L46.5,1v0h0h-0.1
	l0,0h-0.1h-0.1l0,0h-0.1l0,0H46l-0.2-0.1l0,0h-0.1l-0.2-0.3h-0.1l0,0h-0.1l0,0h-0.1l0,0l0,0l0,0L45,0.5l-0.2-0.3h0h-0.1
	C44.2,0,43.7,0,43.2,0h-0.1h-0.2h-0.1h-0.2l-0.2,0.2h-0.1l0,0h0h0h0L42,0.3l0,0h-0.1h-0.1h-0.1h-0.1h-0.1h-0.1h-0.1l-0.2,0.1h0h0
	h-0.1l-0.1,0h-0.1L40.5,1h0h0l-0.2,0.2h-0.1l0,0H40l-0.1,0h-0.1h-0.1l0,0l-0.2,0.2l-0.2,0.1h-0.1l0,0h-0.1l-0.1,0h-0.1h-0.1l0,0
	h-0.1l-0.2,0.3h0h0h-0.1h-0.1h-0.1L38,2.2h-0.1h0l-0.2,0.1h0l-0.1,0.1l-0.1,0h-0.1h-0.1h-0.1h0h0l-0.2,0.1h0h-0.1l-0.1,0.3h-0.1
	h-0.1h-0.1h-0.1h0l-0.2,0.1h0h0l-0.1,0.3h-0.1l-0.1,0h-0.1h0h-0.1l-0.2,0.1l0,0H35h-0.1l-0.1,0h-0.1h-0.1c-1.6,0.7-2.4,2.5-1.7,4.1
	s2.5,2.4,4.1,1.7h0.1l0.1-0.1h0.1h0.1l0,0h0.1l0.2-0.1h0h0h0.1L38,9h0.1h0.1h0h0l0.2-0.1h0.1h0h0.1l0.1-0.1H39h0.1h0h0l0.2-0.6h0h0
	h0.1h0.1h0.1H40h0h0.1l0.2-0.1h0h0h0.1h0.1h0.1h0.1h0h0L41.2,8l0,0h0.1h0.1h0.1h0.1h0.1h0.1l0,0L41.9,8l0,0H42h0.1h0.1h0.1h0.1h0.1
	l0,0l0.2-0.1h0h0h0.1L43,7.8h0.1h0.1h0h0l0,0l0,0l0,0h0.1l0.6-1.3l0,0H44h0.1h0h0h0.1l0,0h0.1l0,0l0,0l0,0h0.1l0,0h0.1l0,0h0.1h0.1
	h0h0h0.1l0,0h0.1l0,0l0,0l0,0h0.1l0,0h0.1h0.1l0,0h0.1l0,0l0,0h0h0.1l0,0h0.1h0.1l0,0l0,0h0.1l0,0H46H46h0h0.1l0,0h0.1h0h0.1l0,0
	h0.1l0,0h0.1l0.2,0.1l0,0h0.1h0.1l0,0H47h0.1l0,0h0.1l0,0h0h0h0.1l0,0l0.9,1.6h0h0.1h0.1h0h0.1h0.1l0,0h0.1h0h0.1H49l0,0h0.1h0.1
	l0,0l0,0h0.1l0,0l0,0h0.1h0.1h0.1h0.1h0.2h0.1l0,0h0.1H50h0l0,0h0.1l0,0h0.1l0,0h0.1l0,0l0.2,1l0,0h0.1h0.1l0,0h0.1h0.1l0,0h0.1
	c1.5,0.7,3.3,0,4-1.5c0,0,0-0.1,0-0.1C55.5,6.1,54.7,4.4,53.3,3.8z"/>
<path class="st0" d="M26.3,8.6L26.3,8.6L26.3,8.6h-0.1L26,8.7l0,0h-0.1l-0.1,0.1l-0.1,0.1l-0.2,0.2l-0.1,0.1h0h-0.1l-0.2,0.1H25l0,0
	l-0.1,0.1l-0.1,0.1l-0.1,0.1l-0.2,0.2l0,0h-0.1l-0.2,0.1l0,0h-0.1l-0.1,0.1L24,9.8l-0.1,0.1L23.8,10h-0.1h0l-0.3,0.3l0,0h-0.1
	l-0.1,0.1l-0.1,0.1L23,10.4l-0.1,0.1h0h-0.1l-0.2,0.2h-0.1l0,0l-0.1,0.1l-0.1,0.1l-0.1,0.1L22,11h0l0,0l-0.3,0.3h0h-0.1l-0.1,0.1
	l-0.1,0.1l-0.1,0.1l-0.1,0.1H21h0l-0.2,0.1l0,0h-0.1l-0.1,0.1l-0.1,0.1l-0.1,0.1l-0.1,0.1h0h-0.1L20,11.9h-0.1l0,0l-0.2,0.3
	l-0.1,0.1l-0.1,0.1l-0.1,0.1l0,0h-0.1l-0.2,0.1l0,0h-0.1L19,12.6l-0.1,0.1l-0.1,0.1h0c-1.5,0.8-2.1,2.6-1.3,4.1
	c0.8,1.5,2.6,2.1,4.1,1.3l0,0h0l0.1-0.1h0.1l0.1-0.1l0,0H22l0.2-0.1h0.1h0l0.1-0.1l0.1-0.1l0.1-0.1l0.1-0.1h0.1l0,0l0.2-0.1h0h0.1
	l0.2-0.4l0.1-0.1l0.1-0.1l0.1-0.1l0,0h0.1l0.2-0.1h0h0l0.1-0.1l0.1-0.1l0.1-0.1l0.2-0.2l0,0h0.1l0.2-0.1h0.1h0l0.1-0.2l0.1-0.1
	l0.1-0.1l0.1-0.1h0.1h0l0.2-0.1h0h0.1l0.1-0.1l0.1-0.1l0.1-0.1l0.1-0.1l0,0h0.1l0.2-0.2h0h0l0.1-0.1l0.1-0.2H27l0.1-0.1l0,0h0.1
	l0.2-0.1h0h0.1l0.1-0.1l0.1-0.1l0.1-0.1l0.1-0.1H28l0,0l0.2-0.1h0h0.1l0.1-0.1l0.1-0.1l0.2-0.3h0.1l0,0h0.1l0.2-0.1h0.1l0,0h0
	c1.5-0.8,2.1-2.7,1.3-4.2S27.8,7.8,26.3,8.6z"/>
<path class="st0" d="M68.9,12.5L68.9,12.5h-0.2l-0.1-0.1l-0.1-0.1h-0.1l0,0l-0.2-0.1h-0.1h-0.1l-0.1-0.1L68,12.2l-0.1-0.1l-0.1-0.1
	l0,0h-0.1L67.6,12l0,0h-0.1l-0.1-0.1l-0.1-0.1l-0.1-0.1l-0.1-0.1l0,0h-0.1l-0.2-0.1h-0.1l-0.3-0.4h-0.1l-0.1-0.1l-0.1-0.1l-0.1-0.1
	h-0.1l0,0l-0.2-0.1h-0.1h-0.1l-0.1-0.1l-0.2-0.2l-0.1-0.1l-0.1-0.1h-0.1l0,0l-0.2-0.1H65l0,0l-0.1-0.1l-0.2-0.2h-0.1l-0.1-0.1h-0.1
	l0,0L64.3,10l0,0h-0.1L64.1,10L64,9.9l-0.1-0.1l-0.1-0.1h-0.1h-0.1l-0.2-0.1l0,0h-0.1l-0.1-0.1l-0.1-0.1l-0.1-0.1l-0.3-0.3l0,0h-0.1
	l-0.2-0.1l-0.1-0.1l0,0L62.4,9L62.3,9l-0.1-0.1l-0.1-0.1h-0.1l0,0l-0.2-0.1h-0.1h-0.1h-0.1c-1.5-0.8-3.3-0.2-4.1,1.2
	s-0.2,3.3,1.2,4.1h0.1l0,0h0.1l0.2,0.1h0.1h0.1l0.1,0l0.1,0.1l0.1,0.1l0.1,0.1h0.1h0.1l0.2,0.1l0,0H60l0.1,0.1l0.1,0.1l0.1,0.1
	l0.1,0.1l0,0h0.1l0.2,0.1h0.1h0.1l0.1,0.1l0.1,0.1l0.2,0.3h0.1l0,0h0.1l0.3,0.2h0.1h0.1l0.1,0.1l0.1,0.1l0.1,0.1l0.1,0.1h0.1l0,0
	l0.2,0.1h0.1l0,0l0.2,0.2l0.1,0.1l0.1,0.1l0.1,0.1h0.1l0,0l0.2,0.1h0.1h0.1l0.1,0.1l0.1,0l0.1,0.1l0.1,0.1h0.1l0,0l0.2,0.1l0,0h0.1
	l0.1,0.1l0.1,0l0.1,0.1l0.3,0.2l0,0h0.1l0.2,0.2l0,0h0.1l0.1,0.1l0.1,0l0.1,0.1l0.1,0.1l0,0h0.1l0.2,0.1h0.1h0.1l0.1,0.1h0.1
	l0.1,0.1h0.1c1.4,0.8,3.3,0.3,4.1-1.2c0,0,0,0,0-0.1C70.7,15.1,70.3,13.4,68.9,12.5z"/>
<path class="st0" d="M74,23L74,23h0.1h0.1l0.2,0.1h0.1l0,0l0.2,0.2l0.1,0.1l0.1,0.1l0.1,0.1H75l0,0l0.2,0.1h0.1l0,0l0.3,0.2l0.1,0
	l0.1,0.1l0.1,0.1h0.1h0.1l0.2,0.2h0.1h0.1l0.1,0.1l0.1,0.1h0.1l0.1,0.1h0.1h0.1l0.2,0.1H77h0.1l0.1,0.1l0.1,0l0.1,0.1l0.1,0.2l0,0
	l0,0l0,0l-0.1,0.1l-0.1,0.1l-0.1,0.1L77.1,25H77H77l-0.3,0.2l0,0h-0.1l-0.1,0.1l-0.1,0.1l-0.1,0.1l-0.1,0.1l0,0h-0.1l-0.2,0.1h-0.1
	h-0.1l-0.1,0.1l-0.2,0.2l-0.1,0.1L75.3,26l0,0h-0.1L75,26.1l0,0H75h-0.1c-1.5,0.8-2,2.7-1.2,4.2c0.8,1.5,2.7,2,4.2,1.2H78H78h0.1
	l0.2-0.1l0,0h0.1v-0.1l0.1-0.1l0.1,0l0.1-0.1h0.1h0.1l0.2-0.1H79h0.1l0.1-0.1l0.1-0.1l0.1-0.1l0.1-0.2l0,0h0.1l0.2-0.1h0.1h0.1
	l0.1-0.1l0.2-0.2l0.1,0l0.1-0.1h0.1l0,0l0.2-0.1h0.1h0.1l0.1-0.1l0,0V30c0,0,0,0,0,0.1s0,0,0,0.1v0.1c0,0,0,0,0,0.1s0,0,0,0.1v0.1
	c0,0,0,0.1,0,0.1s0,0.1,0,0.1v0.1c0,0,0,0,0,0.1s0,0,0,0.1v0.3c0,0,0,0,0,0.1s0,0,0,0.1v0.1c0,0,0,0.1,0,0.1s0,0.1,0,0.1v0.1
	c0,0,0,0,0,0.1s0,0,0,0.1v0.2c0,0,0,0,0,0.1c0,0.1,0,0,0,0.1v0.1c0,0,0,0.1,0,0.1s0,0.1,0,0.1v0.1c0,0,0,0,0,0.1s0,0,0,0.1v0.2
	c0,0,0,0,0,0.1s0,0,0,0.1v0.1c0,0,0,0.1,0,0.1s0,0.1,0,0.1v0.1c0,0,0,0,0,0.1s0,0,0,0.1v0.2c0,0,0,0,0,0.1s0,0,0,0.1v0.1
	c0,1.7,1.4,3,3,3c1.7,0,3-1.4,3-3v-0.1c0,0,0,0,0-0.1s0,0,0-0.1v-0.5c0,0,0-0.1,0-0.1s0-0.1,0-0.1v-0.2c0,0,0,0,0-0.1v-0.3
	c0,0,0,0,0-0.1s0,0,0-0.1v-0.1c0,0,0-0.1,0-0.1s0-0.1,0-0.1v-0.7c0,0,0-0.1,0-0.1s0-0.1,0-0.1v-0.1c0,0,0,0,0-0.1V31c0,0,0,0,0-0.1
	s0,0,0-0.1v-0.1c0,0,0-0.1,0-0.1s0-0.1,0-0.1v-0.2c0,0,0,0,0-0.1v-0.3c0,0,0,0,0-0.1v-0.1c0,0,0-0.1,0-0.1s0-0.1,0-0.1v-0.1
	c0,0,0,0,0-0.1s0,0,0-0.1V29c0,0,0,0,0-0.1v-0.2c0,0,0-0.1,0-0.1s0-0.1,0-0.1v-0.1c0,0,0,0,0-0.1s0,0,0-0.1v-0.2c0,0,0,0,0-0.1v-0.2
	c0,0,0-0.1,0-0.1s0-0.1,0-0.1v-0.1c0,0,0,0,0-0.1s0,0,0-0.1v-0.2c0,0,0,0,0-0.1v-0.2c0,0,0-0.1,0-0.1s0-0.1,0-0.1v-0.7
	c0,0,0-0.1,0-0.1s0-0.1,0-0.1v-0.1c0,0,0,0,0-0.1s0,0,0-0.1v-0.2c0,0,0,0,0-0.1v-0.2c0,0,0-0.1,0-0.1s0-0.1,0-0.1v-0.1l0,0l0,0
	c0,0,0-0.1,0-0.1s0-0.1,0-0.1v-0.1v-0.1V24V24v-0.1l0,0c0,0,0-0.1,0-0.2l0,0l0,0v0c0-0.1-0.1-0.1-0.1-0.2l0,0v0
	c0-0.1-0.1-0.1-0.1-0.2l0,0l0,0v-0.1l-0.3-0.2l0,0l-0.1-0.1l0,0l-0.1-0.1l0,0l-0.1-0.1l0,0l-0.1-0.1l0,0l-0.1-0.1l-0.1-0.1l0,0
	l-0.1-0.1l-0.1-0.1l0,0L85.5,22l-0.1-0.1l0,0l0,0l-0.1,0l-0.1-0.1l-0.1-0.1H85H85l-0.2-0.1h-0.1h-0.1l-0.1-0.2l-0.1,0l-0.1-0.1
	l-0.1-0.1h-0.1l0,0l-0.2-0.1h-0.1h-0.1l-0.1-0.1L83.5,21l-0.1-0.1l-0.1-0.1h-0.1h-0.1L83,20.7h-0.1l0,0l-0.1-0.1l-0.1,0l-0.2-0.2
	l-0.1-0.1h-0.1h-0.1l-0.2-0.2H82l0,0l-0.1-0.1l-0.1-0.1L81.7,20L81.6,20h-0.1h-0.1l-0.2-0.1h-0.1h-0.1l-0.1-0.1l-0.1,0l-0.1-0.1
	l-0.1-0.1h-0.1h-0.1l-0.2-0.1l0,0h-0.1l-0.2-0.3h-0.1l-0.1-0.1l-0.1-0.1h-0.1h-0.1l-0.2-0.2h-0.1h-0.1l-0.1-0.1l-0.1,0l-0.1-0.1
	l-0.1,0h-0.1h-0.1l-0.2-0.1h-0.1h-0.1l-0.1-0.1l-0.1,0l-0.1-0.1l-0.1-0.2h-0.1l0,0l-0.2-0.1h-0.1l0,0l-0.1-0.1l-0.2-0.2l-0.1,0
	l-0.1-0.1h-0.1l0,0L77,17.7H77h-0.1h-0.1c-1.5-0.8-3.3-0.2-4.1,1.2S72.6,22.2,74,23z"/>
</svg>
