<?xml version="1.0" encoding="utf-8"?>
<!-- Generator: Adobe Illustrator 19.2.1, SVG Export Plug-In . SVG Version: 6.00 Build 0)  -->
<svg version="1.1" id="_x32_968b289-c807-458a-92ac-35885d5751fa"
	 xmlns="http://www.w3.org/2000/svg" xmlns:xlink="http://www.w3.org/1999/xlink" x="0px" y="0px" viewBox="0 0 512 434.3"
	 style="enable-background:new 0 0 512 434.3;" xml:space="preserve">
<style type="text/css">
	.st0{fill:#3A86FF;}
</style>
<title>gamedev</title>
<path class="st0" d="M333.8,77.1H273v-59c0-10-8.1-18.1-18.1-18.1c-10,0-18.1,8.1-18.1,18.1v59.1h-58.2C80.3,77.1,0,157,0,255.3
	s79.8,178.6,178.2,178.6l155.2,0.4c98.3,0,178.6-79.8,178.6-178.2C512.4,157.4,432.6,77.1,333.8,77.1L333.8,77.1L333.8,77.1z
	 M333.4,398.2l-155.2-0.4c-78.7-0.2-142.2-64.2-142-142.9c0.2-78.7,64.2-142.2,142.9-142l154.8,0.4c78.5,0,142.4,63.9,142,142.4
	S411.9,398.2,333.4,398.2L333.4,398.2z"/>
<path class="st0" d="M174.6,238.1h-20.7v-20.7c0-10-8.1-18.1-18.1-18.1s-18.1,8.1-18.1,18.1c0,0,0,0,0,0v20.7H97
	c-10,0-18.1,8.1-18.1,18.1S87,274.3,97,274.3h20.7V295c0,10,8.1,18.1,18.1,18.1c10,0,18.1-8.1,18.1-18.1v-20.7h20.7
	c10.7,0,19.3-7.4,19.3-18.1C193.9,245.5,185.3,236.9,174.6,238.1z"/>
<circle class="st0" cx="344.9" cy="226.6" r="29.1"/>
<circle class="st0" cx="403.1" cy="284.9" r="29.1"/>
</svg>
