<?xml version="1.0" encoding="utf-8"?>
<!-- Generator: Adobe Illustrator 19.2.1, SVG Export Plug-In . SVG Version: 6.00 Build 0)  -->
<svg version="1.1" id="_x34_54d6406-9d88-4a17-a7c3-da31c8f04811"
	 xmlns="http://www.w3.org/2000/svg" xmlns:xlink="http://www.w3.org/1999/xlink" x="0px" y="0px" viewBox="0 0 19.5 20.3"
	 style="enable-background:new 0 0 19.5 20.3;" xml:space="preserve">
<style type="text/css">
	.st0{fill:#3A86FF;}
</style>
<title>prog</title>
<path class="st0" d="M9.7,0C9,0,8.3,0.1,7.6,0.2C7.4,0.3,7.2,0.5,7.1,0.7L6.7,2.1C5.8,2.4,5,2.9,4.2,3.5L2.8,3.2
	c-0.3-0.1-0.5,0-0.7,0.2C1.2,4.4,0.5,5.7,0,7C0,7.3,0,7.5,0.2,7.7l1,1c-0.2,1-0.2,2,0,2.9l-1,1C0,12.8,0,13.1,0,13.4
	c0.4,1.3,1.2,2.6,2.1,3.6c0.2,0.2,0.4,0.3,0.7,0.2l1.4-0.4c0.8,0.6,1.6,1.1,2.5,1.5l0.4,1.4c0.1,0.3,0.3,0.4,0.5,0.5
	c1.4,0.3,2.8,0.3,4.2,0c0.3-0.1,0.5-0.2,0.5-0.5l0.4-1.4c0.9-0.3,1.8-0.8,2.5-1.5l1.4,0.4c0.3,0.1,0.5,0,0.7-0.2
	c0.9-1.1,1.6-2.3,2.1-3.6c0.1-0.3,0-0.5-0.2-0.7l-1-1c0.2-1,0.2-1.9,0-2.9l1-1c0.2-0.2,0.3-0.5,0.2-0.7c-0.4-1.3-1.1-2.6-2.1-3.6
	c-0.2-0.2-0.5-0.3-0.7-0.2l-1.4,0.4c-0.7-0.6-1.6-1.1-2.5-1.5l-0.4-1.4c-0.1-0.3-0.3-0.5-0.6-0.5C11.1,0,10.4,0,9.7,0z M9.7,1.2
	c0.5,0,1,0.1,1.4,0.1l0.4,1.3C11.6,2.9,11.7,3,12,3.1c1,0.3,2,0.9,2.8,1.6c0.2,0.2,0.4,0.2,0.7,0.2l1.3-0.3c0.6,0.7,1.1,1.6,1.4,2.5
	l-0.9,1C17,8.1,16.9,8.4,17,8.6c0.2,1,0.2,2.1,0,3.2c-0.1,0.2,0,0.5,0.2,0.6l0.9,0.9c-0.3,0.9-0.8,1.8-1.4,2.5l-1.3-0.4
	c-0.2-0.1-0.5,0-0.7,0.2C13.9,16.4,13,17,12,17.3c-0.2,0.1-0.4,0.3-0.5,0.5L11.2,19c-0.5,0.1-1,0.1-1.4,0.1c-0.5,0-1-0.1-1.4-0.1
	L8,17.8c-0.1-0.2-0.2-0.4-0.5-0.5c-1-0.3-2-0.9-2.8-1.6c-0.2-0.2-0.4-0.2-0.7-0.2l-1.3,0.3c-0.6-0.7-1.1-1.6-1.4-2.5l0.9-0.9
	c0.2-0.2,0.2-0.4,0.2-0.6c-0.2-1-0.2-2.1,0-3.2c0.1-0.2,0-0.5-0.2-0.7L1.4,7c0.3-0.9,0.8-1.8,1.4-2.5l1.3,0.3c0.2,0.1,0.5,0,0.7-0.2
	C5.5,4,6.5,3.4,7.5,3.1C7.7,3,7.9,2.8,8,2.6l0.4-1.3C8.8,1.3,9.3,1.2,9.7,1.2L9.7,1.2z M9.7,5.4c-2.6,0-4.8,2.2-4.8,4.8
	S7.1,15,9.8,15s4.8-2.2,4.8-4.8c0-1.3-0.5-2.5-1.4-3.4C12.2,5.9,11,5.4,9.7,5.4L9.7,5.4L9.7,5.4z M9.7,6.6c2,0,3.6,1.6,3.6,3.6
	s-1.6,3.6-3.6,3.6s-3.6-1.6-3.6-3.6c0-1,0.4-1.9,1.1-2.6C7.8,6.9,8.8,6.6,9.7,6.6L9.7,6.6L9.7,6.6z"/>
</svg>
