<?xml version="1.0" encoding="utf-8"?>
<!-- Generator: Adobe Illustrator 19.2.1, SVG Export Plug-In . SVG Version: 6.00 Build 0)  -->
<svg version="1.1" id="b7d09402-ff86-448a-9acb-444c9eed1376"
	 xmlns="http://www.w3.org/2000/svg" xmlns:xlink="http://www.w3.org/1999/xlink" x="0px" y="0px" viewBox="0 0 100 62"
	 style="enable-background:new 0 0 100 62;" xml:space="preserve">
<style type="text/css">
	.st0{fill:#3A86FF;}
</style>
<title>webdev</title>
<path class="st0" d="M32,51.5c-0.5,0-1-0.1-1.5-0.4l-29.4-19C0.4,31.6,0,30.7,0,29.8c0-0.9,0.4-1.7,1.2-2.2l29.5-19
	c1.2-0.9,2.9-0.6,3.7,0.6c0.9,1.2,0.6,2.9-0.6,3.7c-0.1,0.1-0.1,0.1-0.2,0.1L7.4,29.8l26.1,16.8c1.2,0.8,1.6,2.5,0.8,3.7
	C33.7,51,32.9,51.5,32,51.5z"/>
<path class="st0" d="M67.9,51.5c-0.9,0-1.7-0.4-2.2-1.2c-0.8-1.2-0.4-2.9,0.8-3.7l26.1-16.8L66.4,13c-1.3-0.7-1.7-2.4-1-3.7
	c0.7-1.3,2.4-1.7,3.7-1c0.1,0,0.2,0.1,0.2,0.1l29.5,19c1.2,0.8,1.6,2.4,0.8,3.6c-0.2,0.3-0.5,0.6-0.8,0.8l-29.5,19
	C69,51.3,68.4,51.6,67.9,51.5z"/>
<path class="st0" d="M42.9,62c-0.2,0-0.5,0-0.7-0.1c-1.4-0.3-2.3-1.8-2-3.2L53.3,2c0.3-1.4,1.7-2.4,3.1-2.1s2.4,1.7,2.1,3.1
	c0,0.1,0,0.1,0,0.2L45.4,59.8C45.2,61.1,44.2,62,42.9,62z"/>
</svg>
