<?xml version="1.0" encoding="utf-8"?>
<!-- Generator: Adobe Illustrator 19.2.1, SVG Export Plug-In . SVG Version: 6.00 Build 0)  -->
<svg version="1.1" id="_x34_63e59bb-4334-47a2-8466-1d6e4fe941f3"
	 xmlns="http://www.w3.org/2000/svg" xmlns:xlink="http://www.w3.org/1999/xlink" x="0px" y="0px" viewBox="0 0 89.8 89.8"
	 style="enable-background:new 0 0 89.8 89.8;" xml:space="preserve">
<style type="text/css">
	.st0{fill:#3A86FF;}
</style>
<title>2D</title>
<path class="st0" d="M78.5,89.8H11.2C5,89.8,0,84.7,0,78.5c0,0,0,0,0,0l0,0V11.2C0,5,5,0,11.2,0h67.3c6.2,0,11.2,5,11.2,11.2l0,0
	v67.3C89.8,84.7,84.7,89.8,78.5,89.8L78.5,89.8L78.5,89.8z M78.5,84.1c3.1,0,5.6-2.5,5.6-5.6l0,0l0,0V56.1L67.3,39.3L43.4,63.2
	L64,84.1H78.5z M5.6,78.5c0,3.1,2.5,5.6,5.6,5.6l0,0h44.9L27.9,55.9l-22.3,20L5.6,78.5L5.6,78.5z M84.1,11.2c0-3.1-2.5-5.6-5.6-5.6
	l0,0H11.2c-3.1,0-5.6,2.5-5.6,5.6l0,0l0,0v57L28,47.7l11.4,11.5l27.9-28.4L84.1,48V11.2z M22.4,33.7c-6.2,0-11.2-5-11.2-11.2
	c0-6.2,5-11.2,11.2-11.2c6.2,0,11.2,5,11.2,11.2l0,0C33.7,28.6,28.6,33.7,22.4,33.7L22.4,33.7z M22.4,16.8c-3.1,0-5.6,2.5-5.7,5.6
	s2.5,5.6,5.6,5.7c3.1,0,5.6-2.5,5.7-5.6l0,0C28,19.4,25.5,16.9,22.4,16.8C22.4,16.8,22.4,16.8,22.4,16.8z"/>
</svg>
