<?xml version="1.0" encoding="utf-8"?>
<!-- Generator: Adobe Illustrator 19.2.1, SVG Export Plug-In . SVG Version: 6.00 Build 0)  -->
<svg version="1.1" id="_x36_ecc4d10-87f7-4c01-9973-c19b3b2f5472"
	 xmlns="http://www.w3.org/2000/svg" xmlns:xlink="http://www.w3.org/1999/xlink" x="0px" y="0px" viewBox="0 0 512 512"
	 style="enable-background:new 0 0 512 512;" xml:space="preserve">
<style type="text/css">
	.st0{fill:#3A86FF;}
</style>
<title>ux</title>
<path class="st0" d="M510.7,489.6c-6.1-27.2-52.5-196.3-254.8-196.3c-219,0-255.3,198-255.6,200c-1.5,8.7,4.4,17,13.1,18.5
	c0.9,0.1,1.8,0.2,2.6,0.2h480c8.8,0,16-7.2,16-16C512,493.8,511.6,491.6,510.7,489.6z M36.6,479.9c13.9-45.1,63.8-154.5,219.2-154.5
	s205.3,109.5,219.2,154.5H36.6z"/>
<path class="st0" d="M255.8,263.2c72.5,0,131.5-59,131.5-131.6S328.3,0,255.8,0S124.4,59,124.4,131.6S183.4,263.2,255.8,263.2
	L255.8,263.2z M255.8,32.1c54.9-0.1,99.5,44.4,99.6,99.4c0.1,54.9-44.4,99.5-99.4,99.6s-99.5-44.4-99.6-99.4c0,0,0-0.1,0-0.1
	C156.5,76.7,200.9,32.2,255.8,32.1C255.8,32.1,255.8,32.1,255.8,32.1z"/>
</svg>
